<svg xmlns="http://www.w3.org/2000/svg" xmlns:xlink="http://www.w3.org/1999/xlink" preserveAspectRatio="xMidYMid" width="545.157" height="159.031" viewBox="0 0 545.157 159.031">
  <defs>
    <style>
      .cls-1 {
        fill: #ff3d2e;
        fill-rule: evenodd;
      }
    </style>
  </defs>
  <path d="M531.872,115.915 C530.876,115.118 529.623,114.454 528.112,113.923 C526.601,113.392 524.932,113.126 523.107,113.126 C520.550,113.126 518.525,113.699 517.031,114.844 C515.536,115.990 514.789,117.426 514.789,119.152 C514.789,120.780 515.503,122.133 516.931,123.212 C518.358,124.291 521.214,125.246 525.497,126.075 C532.171,127.404 537.118,129.354 540.339,131.927 C543.559,134.501 545.170,138.046 545.170,142.560 C545.170,147.409 543.086,151.368 538.920,154.439 C534.752,157.511 529.265,159.046 522.459,159.046 C518.308,159.046 514.498,158.440 511.029,157.228 C507.559,156.016 504.480,154.282 501.790,152.023 L501.641,139.921 L511.801,139.921 L513.793,146.943 C514.656,147.674 515.835,148.213 517.329,148.562 C518.824,148.911 520.384,149.085 522.011,149.085 C524.966,149.085 527.216,148.554 528.759,147.491 C530.303,146.429 531.075,144.985 531.075,143.158 C531.075,141.564 530.295,140.187 528.735,139.024 C527.174,137.862 524.302,136.833 520.118,135.937 C513.776,134.642 508.987,132.724 505.750,130.184 C502.512,127.644 500.894,124.183 500.894,119.800 C500.894,115.285 502.753,111.391 506.472,108.121 C510.190,104.851 515.487,103.215 522.360,103.215 C526.543,103.215 530.503,103.780 534.238,104.908 C537.973,106.037 540.903,107.482 543.029,109.241 L543.178,122.639 L533.416,122.639 L531.872,115.915 ZM473.003,126.075 C479.677,127.404 484.624,129.354 487.845,131.927 C491.065,134.501 492.676,138.046 492.676,142.560 C492.676,147.409 490.592,151.368 486.426,154.439 C482.258,157.511 476.771,159.046 469.965,159.046 C465.814,159.046 462.004,158.440 458.535,157.228 C455.065,156.016 451.986,154.282 449.296,152.023 L449.147,139.921 L459.307,139.921 L461.299,146.943 C462.162,147.674 463.341,148.213 464.835,148.562 C466.329,148.911 467.890,149.085 469.517,149.085 C472.472,149.085 474.722,148.554 476.265,147.491 C477.809,146.429 478.581,144.985 478.581,143.158 C478.581,141.564 477.801,140.187 476.241,139.024 C474.679,137.862 471.808,136.833 467.624,135.937 C461.282,134.642 456.493,132.724 453.256,130.184 C450.018,127.644 448.400,124.183 448.400,119.800 C448.400,115.285 450.259,111.391 453.978,108.121 C457.696,104.851 462.992,103.215 469.866,103.215 C474.049,103.215 478.008,103.780 481.744,104.908 C485.479,106.037 488.409,107.482 490.534,109.241 L490.684,122.639 L480.922,122.639 L479.378,115.915 C478.382,115.118 477.128,114.454 475.618,113.923 C474.107,113.392 472.438,113.126 470.613,113.126 C468.055,113.126 466.030,113.699 464.536,114.844 C463.042,115.990 462.295,117.426 462.295,119.152 C462.295,120.780 463.009,122.133 464.437,123.212 C465.864,124.291 468.720,125.246 473.003,126.075 ZM418.268,159.046 C410.232,159.046 404.040,156.506 399.691,151.426 C395.340,146.346 393.166,139.821 393.166,131.853 L393.166,130.358 C393.166,122.423 395.399,115.899 399.865,110.785 C404.330,105.672 410.697,103.115 418.965,103.115 C423.314,103.115 427.216,103.763 430.669,105.058 C434.122,106.353 436.994,108.179 439.285,110.536 L439.485,124.930 L427.681,124.930 L425.290,116.513 C424.559,115.882 423.663,115.359 422.601,114.944 C421.538,114.529 420.326,114.321 418.965,114.321 C414.848,114.321 411.943,115.815 410.249,118.804 C408.556,121.792 407.709,125.644 407.709,130.358 L407.709,131.853 C407.709,136.667 408.489,140.543 410.050,143.482 C411.610,146.420 414.350,147.890 418.268,147.890 C420.858,147.890 422.932,147.135 424.493,145.624 C426.054,144.113 426.834,142.096 426.834,139.572 L439.983,139.572 L440.132,139.871 C440.264,145.317 438.222,149.874 434.006,153.542 C429.789,157.212 424.543,159.046 418.268,159.046 ZM370.256,145.250 L384.749,145.250 L384.749,158.000 L370.256,158.000 L370.256,145.250 ZM334.546,149.284 L340.772,147.790 L340.772,124.382 C340.772,120.763 340.041,118.198 338.580,116.687 C337.119,115.177 334.911,114.421 331.956,114.421 C330.030,114.421 328.303,114.811 326.777,115.591 C325.249,116.372 323.970,117.476 322.942,118.903 L322.942,147.790 L328.819,149.284 L328.819,158.000 L301.426,158.000 L301.426,149.284 L308.399,147.790 L308.399,114.371 L300.679,112.877 L300.679,104.111 L321.946,104.111 L322.593,111.831 C324.386,109.075 326.594,106.934 329.217,105.406 C331.840,103.879 334.778,103.115 338.033,103.115 C343.477,103.115 347.727,104.826 350.783,108.245 C353.837,111.665 355.365,117.028 355.365,124.332 L355.365,147.790 L362.337,149.284 L362.337,158.000 L334.546,158.000 L334.546,149.284 ZM338.656,46.406 C334.820,46.406 331.363,48.812 329.331,52.644 C327.312,48.812 323.848,46.406 320.025,46.406 C316.195,46.406 312.737,48.812 310.705,52.650 C308.680,48.812 305.216,46.406 301.393,46.406 C297.563,46.406 294.099,48.812 292.074,52.644 C290.055,48.812 286.591,46.406 282.761,46.406 C279.973,46.406 277.436,47.675 275.486,49.769 C273.398,45.450 272.231,41.332 272.231,38.119 C272.231,17.063 289.462,0.000 310.705,0.000 C331.956,0.000 349.187,17.063 349.180,38.119 C349.180,41.450 348.045,45.569 346.019,49.863 C344.051,47.713 341.483,46.406 338.656,46.406 ZM289.149,110.785 C293.648,115.899 295.898,122.489 295.898,130.558 L295.898,131.604 C295.898,139.705 293.648,146.305 289.149,151.401 C284.650,156.498 278.449,159.046 270.547,159.046 C262.545,159.046 256.294,156.498 251.796,151.401 C247.296,146.305 245.047,139.705 245.047,131.604 L245.047,130.558 C245.047,122.523 247.296,115.940 251.796,110.810 C256.294,105.680 262.511,103.115 270.448,103.115 C278.416,103.115 284.650,105.672 289.149,110.785 ZM270.448,114.321 C266.662,114.321 263.906,115.833 262.180,118.853 C260.453,121.875 259.590,125.776 259.590,130.558 L259.590,131.604 C259.590,136.518 260.453,140.461 262.180,143.432 C263.906,146.404 266.695,147.890 270.547,147.890 C274.299,147.890 277.047,146.396 278.790,143.407 C280.533,140.419 281.405,136.484 281.405,131.604 L281.405,130.558 C281.405,125.776 280.524,121.875 278.765,118.853 C277.005,115.833 274.233,114.321 270.448,114.321 ZM213.371,159.046 C205.369,159.046 199.119,156.498 194.620,151.401 C190.120,146.305 187.871,139.705 187.871,131.604 L187.871,130.558 C187.871,122.523 190.120,115.940 194.620,110.810 C199.119,105.680 205.336,103.115 213.272,103.115 C221.240,103.115 227.474,105.672 231.973,110.785 C236.472,115.899 238.722,122.489 238.722,130.558 L238.722,131.604 C238.722,139.705 236.472,146.305 231.973,151.401 C227.474,156.498 221.273,159.046 213.371,159.046 ZM224.229,130.558 C224.229,125.776 223.349,121.875 221.589,118.853 C219.829,115.833 217.057,114.321 213.272,114.321 C209.486,114.321 206.730,115.833 205.004,118.853 C203.277,121.875 202.414,125.776 202.414,130.558 L202.414,131.604 C202.414,136.518 203.277,140.461 205.004,143.432 C206.730,146.404 209.519,147.890 213.371,147.890 C217.123,147.890 219.871,146.396 221.614,143.407 C223.357,140.419 224.229,136.484 224.229,131.604 L224.229,130.558 ZM155.548,149.284 L162.571,147.790 L162.571,90.564 L154.801,89.070 L154.801,80.305 L177.114,80.305 L177.114,147.790 L184.136,149.284 L184.136,158.000 L155.548,158.000 L155.548,149.284 ZM123.026,149.284 L130.048,147.790 L130.048,90.564 L122.279,89.070 L122.279,80.305 L144.591,80.305 L144.591,147.790 L151.614,149.284 L151.614,158.000 L123.026,158.000 L123.026,149.284 ZM101.062,155.236 C100.763,154.290 100.530,153.335 100.364,152.372 C98.638,154.364 96.537,155.975 94.064,157.203 C91.590,158.431 88.760,159.046 85.573,159.046 C80.293,159.046 76.101,157.610 72.997,154.738 C69.892,151.866 68.340,147.957 68.340,143.009 C68.340,137.962 70.365,134.061 74.416,131.305 C78.467,128.549 84.410,127.171 92.246,127.171 L99.667,127.171 L99.667,121.892 C99.667,119.302 98.920,117.293 97.426,115.865 C95.932,114.438 93.723,113.724 90.802,113.724 C89.141,113.724 87.664,113.915 86.369,114.296 C85.074,114.678 84.029,115.135 83.232,115.666 L82.285,121.443 L71.328,121.443 L71.378,109.490 C74.034,107.697 77.081,106.187 80.517,104.958 C83.954,103.730 87.697,103.115 91.748,103.115 C98.422,103.115 103.842,104.751 108.010,108.021 C112.176,111.292 114.260,115.948 114.260,121.991 L114.260,144.254 C114.260,145.084 114.268,145.865 114.285,146.595 C114.301,147.325 114.360,148.023 114.459,148.687 L118.892,149.284 L118.892,158.000 L102.108,158.000 C101.709,157.104 101.361,156.182 101.062,155.236 ZM99.667,135.090 L92.246,135.090 C89.158,135.090 86.818,135.812 85.224,137.256 C83.630,138.701 82.833,140.436 82.833,142.461 C82.833,144.287 83.422,145.715 84.601,146.744 C85.780,147.774 87.415,148.288 89.507,148.288 C91.698,148.288 93.691,147.815 95.484,146.869 C97.277,145.922 98.671,144.736 99.667,143.308 L99.667,135.090 ZM58.753,126.274 C60.927,129.330 62.015,132.866 62.015,136.883 C62.015,143.823 59.724,149.077 55.142,152.646 C50.560,156.216 44.068,158.000 35.668,158.000 L0.008,158.000 L0.008,149.284 L7.728,147.790 L7.728,95.744 L0.008,94.250 L0.008,85.484 L7.728,85.484 L32.232,85.484 C40.765,85.484 47.422,87.145 52.203,90.465 C56.985,93.785 59.375,98.750 59.375,105.356 C59.375,108.711 58.487,111.706 56.711,114.346 C54.934,116.986 52.353,118.970 48.966,120.298 C53.315,121.228 56.578,123.220 58.753,126.274 ZM41.670,99.081 C39.561,97.487 36.415,96.690 32.232,96.690 L22.271,96.690 L22.271,115.865 L32.730,115.865 C36.615,115.865 39.603,115.068 41.695,113.475 C43.786,111.881 44.832,109.557 44.832,106.502 C44.832,103.149 43.778,100.675 41.670,99.081 ZM44.932,128.740 C43.205,126.864 40.482,125.926 36.764,125.926 L22.271,125.926 L22.271,146.844 L35.668,146.844 C39.520,146.844 42.458,146.006 44.484,144.329 C46.508,142.652 47.522,140.170 47.522,136.883 C47.522,133.330 46.658,130.616 44.932,128.740 ZM302.163,96.000 L302.163,87.669 L319.255,87.669 L319.255,96.000 L302.163,96.000 ZM281.790,59.775 L281.802,59.775 C280.118,57.650 278.622,55.456 277.341,53.269 C278.704,51.294 280.629,50.056 282.755,50.056 C286.743,50.056 289.992,54.375 290.206,59.775 C290.213,59.956 290.231,60.144 290.231,60.331 C290.231,61.338 291.058,62.156 292.074,62.156 C293.090,62.156 293.916,61.338 293.916,60.331 C293.916,60.144 293.935,59.956 293.941,59.775 C294.150,54.369 297.405,50.056 301.393,50.056 C305.380,50.056 308.630,54.375 308.844,59.775 C308.850,59.956 308.863,60.144 308.863,60.331 C308.863,61.338 309.690,62.156 310.705,62.156 C311.727,62.156 312.554,61.338 312.554,60.331 C312.554,60.144 312.561,59.956 312.573,59.775 C312.781,54.369 316.043,50.056 320.025,50.056 C324.012,50.056 327.261,54.375 327.476,59.775 C327.482,59.956 327.495,60.144 327.495,60.331 C327.495,61.338 328.328,62.156 329.337,62.156 C330.359,62.156 331.192,61.338 331.192,60.331 C331.192,60.144 331.205,59.963 331.211,59.775 C331.419,54.369 334.675,50.056 338.663,50.056 C340.833,50.056 342.789,51.350 344.152,53.400 C342.909,55.550 341.445,57.700 339.811,59.775 L339.823,59.775 L321.021,83.969 L300.396,83.969 L281.790,59.775 Z" class="cls-1"/>
</svg>
